<svg xmlns="http://www.w3.org/2000/svg" viewBox="0 0 1200 180" height="680.315" width="4535.433" xmlns:v="https://vecta.io/nano"><defs><linearGradient id="A" x1="65.073" y1="166.937" x2="66.035" y2="240.195" gradientUnits="userSpaceOnUse"><stop offset="0" stop-color="#fff" stop-opacity="0"/><stop offset=".3" stop-color="#fff" stop-opacity="0"/><stop offset="1" stop-color="#adb0b8"/></linearGradient></defs><path d="M-15.716 168.515c-3.515-2.241-6.455-4.915-8.87-8.067a32.86 32.86 0 0 1-5.196-9.97c-.259-.813-.604-2.079-.778-2.855-.972-4.34-1.119-8.772-.44-13.21.639-4.176 1.977-8.063 4.241-12.321l.372-.681.216-.394.039-.081-.118-.158c-.209-.28-.421-.586-.648-.936-1.459-2.252-2.156-4.484-2.218-7.108-.021-.885.047-1.943.193-2.991a33.61 33.61 0 0 1 .735-3.591c.586-2.28 1.507-5.074 2.891-8.77l.18-.493c-.001-.003-.052-.046-.114-.094a3.63 3.63 0 0 1-1.027-1.265 3.16 3.16 0 0 1-.251-.686c-.196-.756-.153-1.496.13-2.235.03-.079.104-.239.165-.357.145-.282 2.103-3.815 2.278-4.112a3.51 3.51 0 0 1 .897-1.036c.788-.618 1.85-.888 2.835-.72a38.46 38.46 0 0 1 1.724.403c1.586.412 3.707 1.107 6.072 1.99 4.082 1.524 7.373 3.009 10.746 4.851l1.581.888.215.127.204-.121c3.726-2.208 7.632-3.982 11.232-5.102.575-.179 1.828-.534 2.13-.603l.431-.103.676-.156c5.486-1.2 10.394-.94 14.56.769.821.337 1.374.609 2.187 1.079.588.34.884.524 1.303.817 3.801 2.654 6.657 6.918 8.385 12.521.22.713.511 1.792.689 2.55.943 4.028 1.367 8.63 1.244 13.517l-.006.221.609.369c3.544 2.149 6.654 4.399 10.086 7.294 2.212 1.866 4.113 3.614 5.359 4.927a36.89 36.89 0 0 1 1.22 1.35c.199.248.411.617.535.931a4.64 4.64 0 0 1 .205.77c.106.687.013 1.389-.271 2.03-.099.225-.226.433-1.455 2.392l-1.484 2.297c-.827.981-2.079 1.456-3.334 1.264a3.43 3.43 0 0 1-.843-.234l-.177-.07c-.002 0-.125.143-.274.317-3.61 4.224-6.161 6.85-8.444 8.692-2.702 2.18-5.209 3.322-7.93 3.612-1.141.122-2.465.093-3.713-.079l-.194-.027-.177.283c-1.244 1.991-2.319 3.5-3.577 5.024a35.53 35.53 0 0 1-9.523 8.078c-3.756 2.191-7.868 3.667-12.068 4.332-3.359.532-6.77.54-10.112.025-3.885-.599-7.598-1.875-11.245-3.864a66.6 66.6 0 0 1-2.08-1.228zm-1.361-44.789c1.989 1.035 4.585 1.897 6.986 2.321 1.57.277 3.014.368 4.49.283 1.91-.11 3.958-.516 6.151-1.221 2.285-.734 4.179-1.602 5.804-2.662.846-.551 1.42-.985 2.808-2.123.757-.62 1.115-.896 1.524-1.177.807-.553 1.487-.822 2.239-.887.434-.038.777.029 1.154.225a3.24 3.24 0 0 0 .234.108 5.48 5.48 0 0 1 1.371.766c.64.478.914.839 1.051 1.384.166.658.172 1.572.018 2.675-.039.282-.09.579-.19 1.123-.34 1.84-.448 2.578-.522 3.583-.094 1.262-.065 2.513.089 3.921.205 1.871.648 3.975 1.201 5.694.899 2.797 2.105 4.949 4.012 7.16 1.162 1.347 2.621 2.713 4.006 3.752a16.83 16.83 0 0 0 4.66 2.489c2.485.875 4.683 1.214 6.567 1.012 1.342-.143 2.622-.594 3.957-1.393 1.792-1.073 3.879-2.916 6.475-5.718 1.246-1.345 2.383-2.639 4.284-4.875l.473-.547c.525-.532 1.306-.716 1.996-.472.136.048.16.06.779.368l.573.282c.005-.001 2.233-3.547 2.232-3.553a37 37 0 0 0-.925-1.011c-1.909-2.008-5.627-5.236-8.674-7.53-1.645-1.239-3.083-2.228-5.054-3.477a120.16 120.16 0 0 0-3.361-1.983c-2.733-1.501-4.994-2.583-7.455-3.569-1.912-.766-3.677-1.366-6.551-2.226l-3.735-1.159a5.62 5.62 0 0 1-.854-.369c-1.651-.824-3.318-1.803-4.902-2.877-.512-.348-.643-.448-.993-.764-.494-.446-.974-.908-2.346-2.252l-3.302-3.142c-2.5-2.259-5.131-4.256-8.222-6.241a62.55 62.55 0 0 0-1.974-1.219c-4.195-2.514-8.221-4.406-13.409-6.301-2.094-.765-3.901-1.343-5.283-1.689l-1.003-.236c-.005.001-2.032 3.666-2.031 3.671s.239.168.529.369c.572.394.722.511.852.66a1.81 1.81 0 0 1 .409.783 1.79 1.79 0 0 1 .022.883c-.028.13-.093.313-.43 1.206-.944 2.503-1.466 3.958-2.02 5.63-.775 2.338-1.291 4.243-1.6 5.909-.519 2.801-.403 4.875.377 6.742.601 1.438 1.654 2.924 3.082 4.347 1.079 1.075 2.102 1.911 3.202 2.618.282.181.912.546 1.226.708zm1.352-4.36c-1.349-.864-2.479-1.851-3.356-2.932-1.511-1.861-2.116-3.992-1.807-6.361.154-1.183.529-2.546 1.395-5.075 1.504-4.391 2.389-6.06 3.622-6.833 1.002-.628 2.251-.68 3.983-.168 1.758.52 4.392 1.714 7.202 3.265.822.453 2.326 1.356 3.121 1.872 2.064 1.34 3.944 2.791 5.501 4.245 1.15 1.073 2.252 2.314 3.179 3.577.885 1.207 1.268 1.949 1.379 2.674.046.303.019.597-.084.893a6.04 6.04 0 0 1-.753 1.329c-.416.531-.845.958-1.38 1.373a30.27 30.27 0 0 1-3.195 2.148c-2.064 1.194-4.148 1.971-6.476 2.412-1.831.347-3.502.437-4.959.268-1.497-.174-3.07-.619-4.84-1.369a18 18 0 0 1-2.533-1.318zm44.119 26.028c-1.468-.958-3.025-2.296-4.064-3.491-.82-.944-1.421-1.854-1.984-3.005-.977-1.997-1.67-4.385-1.917-6.603-.199-1.787-.158-3.766.121-5.931.123-.953.215-1.393.411-1.965a5.59 5.59 0 0 1 .46-1.049c.176-.314.393-.635.547-.81.4-.453.958-.673 1.826-.719 1.109-.059 3.177.237 5.084.729 2.336.602 5.109 1.723 7.777 3.144 1.298.692 2.827 1.594 4.056 2.393 2.403 1.563 4.377 3.065 5.541 4.214 1.212 1.196 1.77 2.238 1.788 3.338.024 1.476-.917 3.011-3.849 6.283-2.309 2.576-3.477 3.692-4.653 4.445-1.159.742-2.347 1.151-3.688 1.269-1.8.158-3.917-.349-6.109-1.461a25.46 25.46 0 0 1-1.347-.781z" fill="#fff"/><path d="M54.47 115.017l-.013-.013-.016-.086c.002 0-.082-.006-.09-.006.097.101.002-.013.107.098zm35.339-24.685l1.09.027c3.248.249 6.62 1.824 9.885 4.797.422.384 1.022.968 1.434 1.398 2.181 2.281 4.262 5.16 6.117 8.492l.404.719c-.21.002-.519-.004-.641 0-2.565.079-4.624.256-6.812.592-1.702.261-3.218.579-5.586 1.164l-2.975.703c-.265.052-.183.04-.531.064-1.399.098-2.874.102-4.334.01-.47-.03-.442-.026-.766-.092-.487-.1-.981-.215-2.473-.584-1.785-.441-2.568-.622-3.631-.84-2.748-.562-5.473-.88-8.504-.994a51.59 51.59 0 0 0-1.506-.031l.406-.732c1.624-2.952 3.514-5.646 5.451-7.783a49.85 49.85 0 0 1 1.137-1.193l.273-.266.371-.354c3.104-2.882 6.305-4.512 9.465-4.969a11.41 11.41 0 0 1 1.725-.129zm-20.588 22.279a50.2 50.2 0 0 1 2.799.022c1.89.081 3.679.305 5.238.65a19.23 19.23 0 0 1 3.354 1.078c.981.42 1.232.633 1.352.771.014.119.03.424.006.605a4.44 4.44 0 0 1-.289 1.107 22.39 22.39 0 0 1-1.234 2.58c-.841 1.492-1.855 2.742-3.133 3.863-1.03.904-1.998 1.538-2.885 1.932-.923.409-2.032.709-3.439.896-.688.091-1.421.129-2 .107-1.132-.041-2.133-.233-2.986-.551a4.94 4.94 0 0 1-2.871-2.734c-.312-.731-.578-1.683-1.004-3.752-.739-3.586-.68-4.607-.439-5.072.13-.251.459-.59 1.588-.873 1.307-.327 3.41-.558 5.945-.631zm38.562.027a44.45 44.45 0 0 1 3.631 0c2.262.099 4.043.309 5.209.602 1.071.269 1.428.601 1.561.818.256.418.363 1.308-.314 4.688-.538 2.683-.854 3.745-1.254 4.535a4.7 4.7 0 0 1-1.502 1.766c-.872.623-2.174 1.056-3.937 1.168a26.24 26.24 0 0 1-1.066.008c-1.274-.057-2.716-.318-3.77-.67-.797-.266-1.469-.593-2.199-1.074-1.331-.877-2.632-2.101-3.594-3.383-.771-1.027-1.486-2.286-2.133-3.797-.28-.653-.348-.877-.414-1.197-.059-.287-.071-.396-.076-.607a3.62 3.62 0 0 1 .018-.424s-.03.031.24-.148c.569-.378 1.886-.93 3.342-1.35 1.705-.492 3.939-.832 6.26-.934zm17.762 2.279c-.105.105.014-.022-.096.088.004-.025.013-.068.016-.082.005-.001.072-.005.08-.006zm-35.1 1.885c.369.04.268.035.268.035.191.193.438.567.742 1.299.073.176.15.377.299.785.524 1.434.776 2.053 1.174 2.857.502 1.015 1.089 1.954 1.824 2.938.962 1.286 2.222 2.667 3.383 3.699 1.938 1.723 3.83 2.826 6.277 3.652a23.14 23.14 0 0 0 4.658 1.037c1.632.181 3.133.117 4.75-.201.734-.145 1.377-.376 2.039-.588l-.033 1.16c-.046 1.817-.169 3.238-.402 4.709a26.81 26.81 0 0 1-3.094 8.902c-1.602 2.866-3.706 5.397-6.172 7.432-1.97 1.626-4.172 2.932-6.527 3.873-2.731 1.091-5.632 1.689-8.773 1.795a61.63 61.63 0 0 1-1.824 0c-3.154-.108-6.08-.72-8.842-1.836a24.67 24.67 0 0 1-7.162-4.463c-.482-.431-1.186-1.118-1.594-1.553-2.293-2.445-4.092-5.271-5.354-8.418-1.179-2.941-1.808-5.991-1.973-9.686l-.019-.578c-.003-.167-.004-.313-.018-.471l-.082-.965c.344.113.58.332.939.424 1.283.328 2.45.512 3.639.557a18.5 18.5 0 0 0 1.289-.014c1.961-.105 4.319-.615 6.281-1.35 1.312-.491 2.467-1.075 3.57-1.814 1.415-.948 2.772-2.165 4.078-3.633 1.359-1.528 2.406-3.025 3.178-4.582.396-.8.643-1.403 1.148-2.781a15.34 15.34 0 0 1 .518-1.299c.233-.499.461-.742.631-.863l-.004-.002h.006.006a4.47 4.47 0 0 0 .373-.041c.278-.045.496-.051.803-.018z" fill="url(#A)" transform="matrix(1.073179 .633237 -.633326 1.07333 -8.6767 -61.584846)"/></svg>